<svg width="164" height="109" viewBox="0 0 164 109" fill="none" xmlns="http://www.w3.org/2000/svg">
<path d="M150.609 84.2982C153.359 85.8292 157.008 87.8604 162.694 91.8558H2.14594C11.9166 83.8436 14.6166 81.1276 15.9957 78.9437C16.4162 78.2778 16.707 77.6801 17.032 77.012C17.8166 75.3992 18.8009 73.376 22.2921 68.9913C26.6532 63.5143 30.5733 58.5169 34.1316 53.9808C37.6513 49.4937 40.8171 45.458 43.7052 41.8561C49.5088 34.618 54.1546 29.1786 58.2287 25.43C62.3043 21.6801 65.7676 19.6608 69.2015 19.1978C72.6257 18.7361 76.0951 19.8125 80.2075 22.4251C83.375 24.4373 86.3792 26.1065 89.3713 27.769C90.3108 28.291 91.249 28.8123 92.1908 29.3434C96.136 31.5682 100.16 33.9733 104.644 37.3392C113.613 44.0707 124.448 54.664 140.15 75.3726C143.567 79.8786 145.606 81.4352 148.732 83.2411C149.315 83.5778 149.935 83.923 150.609 84.2982Z" fill="white" stroke="#979797" stroke-width="0.750124"/>
</svg>
