<svg width="118" height="53" viewBox="0 0 118 53" fill="none" xmlns="http://www.w3.org/2000/svg">
<path d="M116.242 52.2858H1.66795C8.64075 46.5679 10.5675 44.6296 11.5518 43.0711C11.8519 42.5959 12.0594 42.1693 12.2913 41.6925C12.8512 40.5416 13.5537 39.0978 16.0452 35.9687C19.1574 32.06 21.955 28.4936 24.4943 25.2564C27.0062 22.0543 29.2654 19.1743 31.3265 16.6037C35.4682 11.4383 38.7836 7.5565 41.6911 4.88139C44.5996 2.20527 47.0712 0.76423 49.5218 0.433801C51.9654 0.104311 54.4414 0.872482 57.3762 2.7369C59.6366 4.17293 61.7805 5.36413 63.9158 6.55056C64.5863 6.92309 65.2559 7.29514 65.928 7.67416C68.7434 9.26185 71.6151 10.9782 74.8155 13.3803C81.2158 18.1842 88.9483 25.744 100.154 40.5226C102.592 43.7383 104.047 44.8492 106.278 46.1379C106.694 46.3782 107.137 46.6246 107.618 46.8924C109.581 47.985 112.185 49.4345 116.242 52.2858Z" fill="white" stroke="#979797" stroke-width="0.535322"/>
</svg>
