<svg width="1440" height="688" viewBox="0 0 1440 688" fill="none" xmlns="http://www.w3.org/2000/svg">
<line x1="0.850586" y1="98.5401" x2="1440.24" y2="98.5401" stroke="#D3D3D3" stroke-width="0.750124"/>
<line x1="0.850586" y1="196.699" x2="1440.24" y2="196.699" stroke="#D3D3D3" stroke-width="0.750124"/>
<line x1="0.850586" y1="491.176" x2="1440.24" y2="491.176" stroke="#D3D3D3" stroke-width="0.750124"/>
<line x1="0.850586" y1="589.335" x2="1440.24" y2="589.335" stroke="#D3D3D3" stroke-width="0.750124"/>
<line x1="0.850586" y1="294.858" x2="1440.24" y2="294.858" stroke="#D3D3D3" stroke-width="0.750124"/>
<line x1="0.850586" y1="393.017" x2="1440.24" y2="393.017" stroke="#D3D3D3" stroke-width="0.750124"/>
<line x1="131.67" y1="98.9152" x2="131.67" y2="0.756126" stroke="#D3D3D3" stroke-width="0.750124"/>
<line x1="881.35" y1="98.9152" x2="881.35" y2="0.756126" stroke="#D3D3D3" stroke-width="0.750124"/>
<line x1="1256.19" y1="98.9152" x2="1256.19" y2="0.756126" stroke="#D3D3D3" stroke-width="0.750124"/>
<line x1="506.51" y1="98.9152" x2="506.51" y2="0.756126" stroke="#D3D3D3" stroke-width="0.750124"/>
<line x1="131.67" y1="98.9152" x2="131.67" y2="0.756126" stroke="#D3D3D3" stroke-width="0.750124"/>
<line x1="506.51" y1="98.9152" x2="506.51" y2="0.756126" stroke="#D3D3D3" stroke-width="0.750124"/>
<line x1="0.475524" y1="197.074" x2="0.47553" y2="98.9152" stroke="#D3D3D3" stroke-width="0.750124"/>
<line x1="750.156" y1="197.074" x2="750.156" y2="98.9152" stroke="#D3D3D3" stroke-width="0.750124"/>
<line x1="1125" y1="197.074" x2="1125" y2="98.9152" stroke="#D3D3D3" stroke-width="0.750124"/>
<line x1="375.315" y1="197.074" x2="375.315" y2="98.9152" stroke="#D3D3D3" stroke-width="0.750124"/>
<line x1="195.392" y1="295.233" x2="195.392" y2="197.074" stroke="#D3D3D3" stroke-width="0.750124"/>
<line x1="945.073" y1="295.233" x2="945.073" y2="197.074" stroke="#D3D3D3" stroke-width="0.750124"/>
<line x1="1319.91" y1="295.233" x2="1319.91" y2="197.074" stroke="#D3D3D3" stroke-width="0.750124"/>
<line x1="570.233" y1="295.233" x2="570.233" y2="197.074" stroke="#D3D3D3" stroke-width="0.750124"/>
<line x1="131.67" y1="393.392" x2="131.67" y2="295.233" stroke="#D3D3D3" stroke-width="0.750124"/>
<line x1="881.35" y1="393.392" x2="881.35" y2="295.233" stroke="#D3D3D3" stroke-width="0.750124"/>
<line x1="1256.19" y1="393.392" x2="1256.19" y2="295.233" stroke="#D3D3D3" stroke-width="0.750124"/>
<line x1="0.475524" y1="491.551" x2="0.47553" y2="393.392" stroke="#D3D3D3" stroke-width="0.750124"/>
<line x1="750.156" y1="491.551" x2="750.156" y2="393.392" stroke="#D3D3D3" stroke-opacity="0.3" stroke-width="0.750124"/>
<line x1="1125" y1="491.551" x2="1125" y2="393.392" stroke="#D3D3D3" stroke-width="0.750124"/>
<line x1="375.315" y1="491.551" x2="375.315" y2="393.392" stroke="#D3D3D3" stroke-opacity="0.3" stroke-width="0.750124"/>
<line x1="506.51" y1="392.738" x2="506.51" y2="294.579" stroke="#D3D3D3" stroke-opacity="0.3" stroke-width="0.750124"/>
<line x1="195.392" y1="589.71" x2="195.392" y2="491.551" stroke="#D3D3D3" stroke-width="0.750124"/>
<line x1="945.073" y1="589.71" x2="945.073" y2="491.551" stroke="#D3D3D3" stroke-width="0.750124"/>
<line x1="1319.91" y1="589.71" x2="1319.91" y2="491.551" stroke="#D3D3D3" stroke-width="0.750124"/>
<line x1="570.233" y1="589.71" x2="570.233" y2="491.551" stroke="#D3D3D3" stroke-width="0.750124"/>
<line x1="881.35" y1="687.869" x2="881.35" y2="589.71" stroke="#D3D3D3" stroke-width="0.750124"/>
<line x1="1256.19" y1="687.869" x2="1256.19" y2="589.71" stroke="#D3D3D3" stroke-width="0.750124"/>
<line x1="130.92" y1="687.869" x2="130.92" y2="589.71" stroke="#D3D3D3" stroke-width="0.750124"/>
<line x1="506.51" y1="687.869" x2="506.51" y2="589.71" stroke="#D3D3D3" stroke-width="0.750124"/>
<line x1="0.850586" y1="687.494" x2="1440.24" y2="687.494" stroke="#D3D3D3" stroke-width="0.750124"/>
<line x1="130.92" y1="687.869" x2="130.92" y2="589.71" stroke="#D3D3D3" stroke-width="0.750124"/>
<line x1="506.51" y1="687.869" x2="506.51" y2="589.71" stroke="#D3D3D3" stroke-width="0.750124"/>
<line x1="0.850586" y1="589.335" x2="1440.24" y2="589.335" stroke="#D3D3D3" stroke-width="0.750124"/>
<line x1="881.35" y1="687.869" x2="881.35" y2="589.71" stroke="#D3D3D3" stroke-width="0.750124"/>
<line x1="1256.19" y1="687.869" x2="1256.19" y2="589.71" stroke="#D3D3D3" stroke-width="0.750124"/>
<line x1="0.850586" y1="687.494" x2="1440.24" y2="687.494" stroke="#D3D3D3" stroke-width="0.750124"/>
<line x1="130.92" y1="687.869" x2="130.92" y2="589.71" stroke="#D3D3D3" stroke-width="0.750124"/>
<line x1="506.51" y1="687.869" x2="506.51" y2="589.71" stroke="#D3D3D3" stroke-width="0.750124"/>
</svg>
