<?xml version="1.0" encoding="UTF-8"?>
<!DOCTYPE svg PUBLIC "-//W3C//DTD SVG 1.1//EN" "http://www.w3.org/Graphics/SVG/1.1/DTD/svg11.dtd">
<svg version="1.2" width="210mm" height="297mm" viewBox="0 0 21000 29700" preserveAspectRatio="xMidYMid" fill-rule="evenodd" stroke-width="28.222" stroke-linejoin="round" xmlns="http://www.w3.org/2000/svg" xmlns:ooo="http://xml.openoffice.org/svg/export" xmlns:xlink="http://www.w3.org/1999/xlink" xmlns:presentation="http://sun.com/xmlns/staroffice/presentation" xmlns:smil="http://www.w3.org/2001/SMIL20/" xmlns:anim="urn:oasis:names:tc:opendocument:xmlns:animation:1.0" xml:space="preserve">
 <defs class="ClipPathGroup">
  <clipPath id="presentation_clip_path" clipPathUnits="userSpaceOnUse">
   <rect x="0" y="0" width="21000" height="29700"/>
  </clipPath>
  <clipPath id="presentation_clip_path_shrink" clipPathUnits="userSpaceOnUse">
   <rect x="21" y="29" width="20958" height="29641"/>
  </clipPath>
 </defs>
 <defs class="TextShapeIndex">
  <g ooo:slide="id1" ooo:id-list="id3 id4 id5 id6 id7 id8 id9 id10"/>
 </defs>
 <defs class="EmbeddedBulletChars">
  <g id="bullet-char-template-57356" transform="scale(0.00048828125,-0.00048828125)">
   <path d="M 580,1141 L 1163,571 580,0 -4,571 580,1141 Z"/>
  </g>
  <g id="bullet-char-template-57354" transform="scale(0.00048828125,-0.00048828125)">
   <path d="M 8,1128 L 1137,1128 1137,0 8,0 8,1128 Z"/>
  </g>
  <g id="bullet-char-template-10146" transform="scale(0.00048828125,-0.00048828125)">
   <path d="M 174,0 L 602,739 174,1481 1456,739 174,0 Z M 1358,739 L 309,1346 659,739 1358,739 Z"/>
  </g>
  <g id="bullet-char-template-10132" transform="scale(0.00048828125,-0.00048828125)">
   <path d="M 2015,739 L 1276,0 717,0 1260,543 174,543 174,936 1260,936 717,1481 1274,1481 2015,739 Z"/>
  </g>
  <g id="bullet-char-template-10007" transform="scale(0.00048828125,-0.00048828125)">
   <path d="M 0,-2 C -7,14 -16,27 -25,37 L 356,567 C 262,823 215,952 215,954 215,979 228,992 255,992 264,992 276,990 289,987 310,991 331,999 354,1012 L 381,999 492,748 772,1049 836,1024 860,1049 C 881,1039 901,1025 922,1006 886,937 835,863 770,784 769,783 710,716 594,584 L 774,223 C 774,196 753,168 711,139 L 727,119 C 717,90 699,76 672,76 641,76 570,178 457,381 L 164,-76 C 142,-110 111,-127 72,-127 30,-127 9,-110 8,-76 1,-67 -2,-52 -2,-32 -2,-23 -1,-13 0,-2 Z"/>
  </g>
  <g id="bullet-char-template-10004" transform="scale(0.00048828125,-0.00048828125)">
   <path d="M 285,-33 C 182,-33 111,30 74,156 52,228 41,333 41,471 41,549 55,616 82,672 116,743 169,778 240,778 293,778 328,747 346,684 L 369,508 C 377,444 397,411 428,410 L 1163,1116 C 1174,1127 1196,1133 1229,1133 1271,1133 1292,1118 1292,1087 L 1292,965 C 1292,929 1282,901 1262,881 L 442,47 C 390,-6 338,-33 285,-33 Z"/>
  </g>
  <g id="bullet-char-template-9679" transform="scale(0.00048828125,-0.00048828125)">
   <path d="M 813,0 C 632,0 489,54 383,161 276,268 223,411 223,592 223,773 276,916 383,1023 489,1130 632,1184 813,1184 992,1184 1136,1130 1245,1023 1353,916 1407,772 1407,592 1407,412 1353,268 1245,161 1136,54 992,0 813,0 Z"/>
  </g>
  <g id="bullet-char-template-8226" transform="scale(0.00048828125,-0.00048828125)">
   <path d="M 346,457 C 273,457 209,483 155,535 101,586 74,649 74,723 74,796 101,859 155,911 209,963 273,989 346,989 419,989 480,963 531,910 582,859 608,796 608,723 608,648 583,586 532,535 482,483 420,457 346,457 Z"/>
  </g>
  <g id="bullet-char-template-8211" transform="scale(0.00048828125,-0.00048828125)">
   <path d="M -4,459 L 1135,459 1135,606 -4,606 -4,459 Z"/>
  </g>
  <g id="bullet-char-template-61548" transform="scale(0.00048828125,-0.00048828125)">
   <path d="M 173,740 C 173,903 231,1043 346,1159 462,1274 601,1332 765,1332 928,1332 1067,1274 1183,1159 1299,1043 1357,903 1357,740 1357,577 1299,437 1183,322 1067,206 928,148 765,148 601,148 462,206 346,322 231,437 173,577 173,740 Z"/>
  </g>
 </defs>
 <defs class="TextEmbeddedBitmaps"/>
 <g>
  <g id="id2" class="Master_Slide">
   <g id="bg-id2" class="Background"/>
   <g id="bo-id2" class="BackgroundObjects"/>
  </g>
 </g>
 <g class="SlideGroup">
  <g>
   <g id="container-id1">
    <g id="id1" class="Slide" clip-path="url(#presentation_clip_path)">
     <g class="Page">
      <g class="Group">
       <g class="Group">
        <g class="com.sun.star.drawing.ClosedBezierShape">
         <g id="id3">
          <rect class="BoundingBox" stroke="none" fill="none" x="-53320" y="-1077" width="13253" height="2577"/>
          <path fill="rgb(165,188,27)" stroke="none" d="M -52425,-1077 L -52174,-1077 -52174,852 -52708,852 C -52894,852 -53043,792 -53154,674 -53265,555 -53320,396 -53320,195 -53320,8 -53262,-145 -53146,-266 -53029,-386 -52880,-447 -52699,-447 -52615,-447 -52524,-429 -52425,-393 L -52425,-1077 Z M -52425,-1077 L -52425,-1077 Z M -52425,636 L -52425,-169 C -52502,-209 -52581,-229 -52661,-229 -52785,-229 -52884,-188 -52958,-106 -53032,-24 -53068,87 -53068,227 -53068,357 -53036,458 -52972,528 -52934,571 -52893,600 -52850,614 -52807,629 -52730,636 -52618,636 L -52425,636 Z M -52425,636 L -52425,636 Z M -51231,-422 C -51039,-422 -50880,-360 -50753,-235 -50625,-110 -50562,47 -50562,236 -50562,419 -50626,571 -50755,692 -50884,813 -51046,874 -51242,874 -51432,874 -51590,813 -51717,690 -51844,567 -51907,413 -51907,229 -51907,42 -51843,-112 -51715,-236 -51586,-360 -51425,-422 -51231,-422 Z M -51231,-422 L -51231,-422 Z M -51245,-196 C -51365,-196 -51463,-156 -51540,-77 -51617,2 -51655,103 -51655,227 -51655,348 -51616,447 -51537,524 -51458,601 -51358,639 -51234,639 -51111,639 -51011,600 -50933,522 -50855,445 -50815,345 -50815,224 -50815,102 -50856,2 -50938,-77 -51019,-156 -51122,-196 -51245,-196 Z M -51245,-196 L -51245,-196 Z M -50295,-1077 L -50046,-1077 -50046,-328 C -49938,-407 -49823,-447 -49700,-447 -49540,-447 -49409,-386 -49308,-264 -49206,-143 -49155,13 -49155,203 -49155,409 -49216,571 -49337,692 -49458,813 -49620,874 -49824,874 -49905,874 -49991,865 -50081,847 -50171,830 -50242,808 -50295,781 L -50295,-1077 Z M -50295,-1077 L -50295,-1077 Z M -50046,-88 L -50046,601 C -49961,626 -49873,639 -49784,639 -49673,639 -49583,600 -49513,520 -49443,441 -49408,340 -49408,215 -49408,88 -49441,-14 -49506,-93 -49571,-173 -49656,-212 -49762,-212 -49855,-212 -49950,-171 -50046,-88 Z M -50046,-88 L -50046,-88 Z M -48612,-419 L -48612,-128 -48598,-150 C -48478,-346 -48357,-444 -48236,-444 -48142,-444 -48044,-396 -47941,-300 L -48073,-80 C -48160,-162 -48240,-204 -48314,-204 -48395,-204 -48465,-165 -48524,-88 -48583,-10 -48612,81 -48612,187 L -48612,852 -48863,852 -48863,-419 -48612,-419 Z M -48612,-419 L -48612,-419 Z M -46911,-419 L -46629,-419 -47523,1499 -47801,1499 -47372,580 -47860,-419 -47576,-419 -47236,298 -46911,-419 Z M -46911,-419 L -46911,-419 Z M -40237,544 C -40191,544 -40151,560 -40118,592 -40085,625 -40068,664 -40068,711 -40068,757 -40085,796 -40117,827 -40150,858 -40190,874 -40237,874 -40284,874 -40323,858 -40355,827 -40387,796 -40403,757 -40403,711 -40403,664 -40387,625 -40355,592 -40323,560 -40284,544 -40237,544 Z"/>
         </g>
        </g>
        <g class="com.sun.star.drawing.ClosedBezierShape">
         <g id="id4">
          <rect class="BoundingBox" stroke="none" fill="none" x="-46466" y="-1077" width="8377" height="2577"/>
          <path fill="rgb(0,98,44)" stroke="none" d="M -46059,-1077 L -46059,-379 C -45952,-445 -45841,-478 -45726,-478 -45539,-478 -45387,-416 -45270,-291 -45152,-165 -45094,-3 -45094,195 -45094,396 -45150,559 -45263,686 -45376,813 -45521,877 -45697,877 -45825,877 -45946,835 -46059,752 L -46059,852 -46466,852 -46466,-1077 -46059,-1077 Z M -46059,-1077 L -46059,-1077 Z M -46059,-113 L -46059,493 C -45977,567 -45897,603 -45818,603 -45721,603 -45645,567 -45589,494 -45534,420 -45507,319 -45507,190 -45507,64 -45536,-33 -45594,-101 -45652,-170 -45728,-204 -45823,-204 -45898,-204 -45976,-173 -46059,-113 Z M -46059,-113 L -46059,-113 Z M -44405,-452 L -44405,-80 -44399,-80 C -44280,-345 -44143,-478 -43986,-478 -43910,-478 -43820,-439 -43715,-360 L -43828,3 C -43928,-61 -44009,-93 -44069,-93 -44163,-93 -44243,-35 -44307,83 -44371,200 -44405,269 -44405,289 L -44405,852 -44812,852 -44812,-452 -44405,-452 Z M -44405,-452 L -44405,-452 Z M -42670,852 L -42670,665 C -42790,806 -42929,877 -43088,877 -43229,877 -43344,833 -43431,745 -43519,658 -43563,537 -43563,382 L -43563,-452 -43156,-452 -43156,355 C -43156,520 -43088,603 -42951,603 -42874,603 -42809,573 -42755,513 -42700,453 -42673,408 -42673,380 L -42673,-452 -42262,-452 -42262,852 -42670,852 Z M -42670,852 L -42670,852 Z M -41510,-1077 L -41510,193 -41504,193 -41001,-452 -40523,-452 -41030,193 -40501,852 -41001,852 -41504,209 -41510,209 -41510,852 -41917,852 -41917,-1077 -41510,-1077 Z M -41510,-1077 L -41510,-1077 Z M -39766,1499 L -39766,-419 -39329,-419 C -39105,-419 -38930,-363 -38805,-251 -38680,-139 -38618,18 -38618,221 -38618,411 -38677,568 -38795,690 -38912,813 -39061,874 -39244,874 -39324,874 -39413,856 -39511,820 L -39511,1499 -39766,1499 Z M -39766,1499 L -39766,1499 Z M -39334,-184 L -39511,-184 -39511,598 C -39434,637 -39354,657 -39270,657 -39153,657 -39057,616 -38982,534 -38908,452 -38870,347 -38870,218 -38870,134 -38888,61 -38923,-2 -38958,-66 -39007,-112 -39068,-141 -39128,-170 -39217,-184 -39334,-184 Z M -39334,-184 L -39334,-184 Z M -38339,-1077 L -38090,-1077 -38090,852 -38339,852 -38339,-1077 Z"/>
         </g>
        </g>
       </g>
       <g class="com.sun.star.drawing.PolyPolygonShape">
        <g id="id5">
         <rect class="BoundingBox" stroke="none" fill="none" x="2234" y="7285" width="15632" height="11673"/>
         <path fill="rgb(165,188,27)" stroke="none" d="M 5276,12525 L 2234,12522 10004,7285 10102,7349 17865,12524 17288,12524 14925,12525 14917,18955 14742,18955 7376,18957 7376,18782 7373,13761 5626,13762 5626,18607 6501,18607 6501,18957 5276,18956 5276,12525 Z M 5276,12525 L 5276,12525 Z M 5626,13733 L 6187,13433 10005,11388 10089,11433 14574,13891 14576,12176 14750,12176 16711,12175 10005,7705 3376,12174 5626,12176 5626,13733 Z M 5626,13733 L 5626,13733 Z M 14574,13920 L 12859,13922 12864,18387 12689,18387 8822,18384 8822,18210 8822,16360 7799,16359 9988,14836 10087,14897 12427,16343 11217,16344 11215,17926 11040,17927 10101,17927 10101,17578 10866,17578 10868,15993 11197,15993 10000,15254 8913,16010 9171,16010 9171,16186 9171,18035 12515,18037 12510,13573 13263,13572 10003,11785 6966,13412 7723,13411 7723,13586 7725,18608 14568,18606 14574,13920 Z"/>
        </g>
       </g>
       <g class="com.sun.star.drawing.PolyPolygonShape">
        <g id="id6">
         <rect class="BoundingBox" stroke="none" fill="none" x="2479" y="7375" width="15139" height="11507"/>
         <path fill="rgb(0,98,44)" stroke="none" d="M 6426,18880 L 5451,18880 5351,18880 5351,18781 5351,12448 2805,12446 2479,12446 2749,12264 9949,7412 10004,7375 10061,7411 17343,12265 17617,12447 17288,12448 14850,12449 14842,18779 14841,18878 14742,18879 7551,18881 7451,18881 7451,18781 7448,13685 6269,13687 5871,13687 6222,13499 9957,11498 10005,11472 10053,11498 13992,13658 14333,13845 13944,13845 12784,13846 12789,18211 12789,18310 12689,18310 8996,18308 8896,18308 8896,18209 8897,16284 8356,16283 8038,16283 8299,16102 9937,14963 9990,14926 10046,14960 11864,16083 12163,16267 11812,16267 11142,16267 11140,17751 11140,17850 11040,17850 10176,17851 10176,17652 10941,17651 10943,16168 10943,16068 11043,16068 11461,16068 9997,15164 8674,16085 8996,16085 9096,16085 9096,16185 9096,18109 12589,18111 12585,13747 12585,13647 12684,13647 13556,13646 10003,11699 6667,13487 7548,13486 7647,13486 7647,13586 7650,18682 14642,18679 14651,12349 14651,12250 14750,12250 16959,12249 10005,7615 3131,12247 5451,12249 5551,12249 5551,12349 5551,18681 6426,18681 6426,18880 Z"/>
        </g>
       </g>
       <g class="Group">
        <g class="com.sun.star.drawing.ClosedBezierShape">
         <g id="id7">
          <rect class="BoundingBox" stroke="none" fill="none" x="10427" y="10961" width="8123" height="7794"/>
          <path fill="rgb(165,188,27)" stroke="none" d="M 13469,12494 C 14290,13209 15352,15310 14628,16141 14483,16308 14351,16526 14171,16633 14202,16899 14206,17089 14186,17312 14412,17175 14628,17060 14771,16997 15230,14555 18171,17259 18549,17244 18371,17332 14810,18937 14733,17165 14644,17211 14419,17289 14205,17548 14131,18061 13918,18481 13842,18747 13764,18749 13575,18776 13332,18697 13730,18318 14079,17477 13867,16776 13213,17010 12470,16833 11903,16339 10562,15076 10356,11870 10445,10962 11610,11167 12648,11778 13469,12494 Z"/>
         </g>
        </g>
        <g class="com.sun.star.drawing.ClosedBezierShape">
         <g id="id8">
          <rect class="BoundingBox" stroke="none" fill="none" x="10380" y="10908" width="8388" height="7895"/>
          <path fill="rgb(0,98,44)" stroke="none" d="M 13499,12459 C 13964,12864 14505,13708 14763,14519 14968,15164 14994,15792 14663,16173 L 14663,16173 C 14621,16221 14582,16271 14543,16321 14445,16447 14344,16575 14220,16658 14234,16779 14241,16887 14244,16989 14245,17071 14244,17148 14239,17228 14325,17177 14407,17130 14483,17089 14575,17040 14659,16998 14729,16966 14912,16040 15446,15843 16066,15959 16709,16080 17438,16544 17953,16872 18250,17060 18473,17202 18547,17200 L 18767,17191 18569,17288 C 18489,17328 17720,17676 16893,17885 16438,18000 15966,18073 15576,18031 15175,17988 14860,17825 14738,17465 14715,17397 14699,17321 14691,17238 14587,17287 14415,17373 14249,17570 14196,17922 14080,18229 13988,18473 13947,18582 13910,18679 13887,18761 L 13878,18794 13843,18795 C 13835,18795 13822,18796 13807,18797 13711,18803 13536,18814 13317,18743 L 13243,18718 13300,18664 C 13509,18465 13704,18134 13808,17762 13891,17463 13914,17138 13835,16838 13516,16942 13178,16953 12850,16880 12501,16801 12163,16629 11871,16375 L 11870,16374 C 11336,15871 10980,15066 10750,14220 10398,12919 10344,11512 10398,10958 L 10403,10908 10452,10916 C 11004,11013 11526,11200 12011,11446 12560,11724 13061,12077 13499,12459 Z M 13499,12459 L 13499,12459 Z M 14674,14547 C 14421,13752 13892,12926 13438,12529 13005,12152 12511,11804 11969,11529 11507,11295 11010,11115 10486,11017 10440,11596 10501,12944 10841,14196 11066,15028 11414,15816 11934,16306 L 11934,16306 C 12213,16549 12537,16714 12870,16788 13197,16862 13535,16847 13851,16733 L 13897,16716 13911,16763 C 14011,17096 13990,17457 13898,17787 13799,18142 13619,18462 13420,18675 13588,18717 13723,18709 13801,18704 L 13807,18703 C 13830,18627 13864,18538 13901,18440 13992,18197 14108,17891 14159,17543 L 14161,17530 14169,17520 C 14360,17289 14559,17197 14669,17146 14685,17138 14699,17132 14712,17125 L 14776,17092 14780,17165 C 14784,17266 14800,17356 14827,17435 14935,17754 15220,17899 15586,17938 15963,17978 16424,17907 16870,17794 17537,17626 18164,17367 18417,17255 18294,17199 18117,17086 17903,16951 17394,16626 16674,16168 16049,16051 15475,15943 14981,16131 14816,17007 L 14812,17032 14789,17042 C 14718,17073 14628,17117 14527,17172 14428,17225 14319,17287 14210,17354 L 14131,17402 14139,17310 C 14149,17199 14153,17097 14151,16991 14148,16885 14140,16771 14124,16639 L 14121,16609 14147,16593 C 14268,16521 14370,16391 14470,16264 14511,16210 14553,16157 14593,16111 L 14593,16111 C 14899,15760 14870,15164 14674,14547 Z"/>
         </g>
        </g>
        <g class="com.sun.star.drawing.ClosedBezierShape">
         <g id="id9">
          <rect class="BoundingBox" stroke="none" fill="none" x="10453" y="10916" width="8060" height="7770"/>
          <path fill="rgb(0,98,44)" stroke="none" d="M 14090,16571 C 14122,16898 14107,17223 14099,17465 14322,17285 14650,17106 14819,17038 15707,18358 18134,17244 18512,17230 18151,17312 14888,18836 14811,17064 14712,17124 14388,17208 14114,17532 14083,17896 13956,18168 13784,18675 13701,18682 13727,18698 13471,18662 13944,18124 14142,17260 13914,16661 13260,16895 12549,16724 11983,16230 10527,14808 10634,11776 10453,10916 11417,16251 14144,16534 14090,16571 Z"/>
         </g>
        </g>
       </g>
       <g class="com.sun.star.drawing.PolyPolygonShape">
        <g id="id10">
         <rect class="BoundingBox" stroke="none" fill="none" x="2423" y="19348" width="15261" height="286"/>
         <path fill="rgb(0,98,44)" stroke="none" d="M 2459,19384 L 2459,19597 17647,19597 17647,19384 2459,19384 Z"/>
         <path fill="none" stroke="rgb(165,188,27)" stroke-width="71" stroke-linejoin="miter" d="M 2459,19384 L 2459,19597 17647,19597 17647,19384 2459,19384 Z"/>
        </g>
       </g>
      </g>
     </g>
    </g>
   </g>
  </g>
 </g>
</svg>