<svg width="166" height="151" viewBox="0 0 166 151" fill="none" xmlns="http://www.w3.org/2000/svg">
<path fill-rule="evenodd" clip-rule="evenodd" d="M30.42 52.4L0 52.37L77.7 0L78.68 0.64L156.31 52.39H150.54L126.91 52.4L126.83 116.7H125.08L51.42 116.72V114.97L51.39 64.76L33.92 64.77V113.22H42.67V116.72L30.42 116.71V52.4ZM33.92 64.48L39.53 61.48L77.71 41.03L78.55 41.48L123.4 66.06L123.42 48.91H125.16L144.77 48.9L77.71 4.2L11.42 48.89L33.92 48.91V64.48ZM123.4 66.35L106.25 66.37L106.3 111.02H104.55L65.88 110.99V109.25V90.75L55.65 90.74L77.54 75.51L78.53 76.12L101.93 90.58L89.83 90.59L89.81 106.41L88.06 106.42H78.67V102.93H86.32L86.34 87.08H89.63L77.66 79.69L66.79 87.25H69.37V89.01V107.5L102.81 107.52L102.76 62.88L110.29 62.87L77.69 45L47.32 61.27L54.89 61.26V63.01L54.91 113.23L123.34 113.21L123.4 66.35Z" fill="white"/>
<path fill-rule="evenodd" clip-rule="evenodd" d="M41.9202 115.95H32.1702H31.1702V114.96V51.6299L5.7102 51.6099H2.4502L5.1502 49.7899L77.1502 1.2699L77.7002 0.899902L78.2702 1.2599L151.09 49.7999L153.83 51.6199L150.54 51.6299L126.16 51.6399L126.08 114.94L126.07 115.93L125.08 115.94L53.1702 115.96H52.1702V114.96L52.1402 63.9999L40.3502 64.0199H36.3702L39.8802 62.1399L77.2302 42.1299L77.7102 41.8699L78.1902 42.1299L117.58 63.7299L120.99 65.5999H117.1L105.5 65.6099L105.55 109.26V110.25H104.55L67.6202 110.23H66.6202V109.24L66.6302 89.9899L61.2202 89.9799H58.0402L60.6502 88.1699L77.0302 76.7799L77.5602 76.4099L78.1202 76.7499L96.3002 87.9799L99.2902 89.8199H95.7802H89.0802L89.0602 104.66V105.65H88.0602L79.4202 105.66V103.67L87.0702 103.66L87.0902 88.8299V87.8299H88.0902H92.2702L77.6302 78.7899L64.4002 87.9999H67.6202H68.6202V88.9999V108.24L103.55 108.26L103.51 64.6199V63.6199H104.5L113.22 63.6099L77.6902 44.1399L44.3302 62.0199L53.1402 62.0099H54.1302V63.0099L54.1602 113.97L124.08 113.94L124.17 50.6399V49.6499H125.16L147.25 49.6399L77.7102 3.2999L8.9702 49.6199L32.1702 49.6399H33.1702V50.6399V113.96H41.9202V115.95Z" fill="white"/>
<path fill-rule="evenodd" clip-rule="evenodd" d="M112.35 52.0895C120.56 59.2395 131.18 80.2495 123.94 88.5595C122.49 90.2295 121.17 92.4095 119.37 93.4795C119.68 96.1395 119.72 98.0395 119.52 100.27C121.78 98.8995 123.94 97.7495 125.37 97.1195C129.96 72.6995 159.37 99.7395 163.15 99.5895C161.37 100.47 125.76 116.52 124.99 98.7995C124.1 99.2595 121.85 100.04 119.71 102.63C118.97 107.76 116.84 111.96 116.08 114.62C115.3 114.64 113.41 114.91 110.98 114.12C114.96 110.33 118.45 101.92 116.33 94.9095C109.79 97.2495 102.36 95.4795 96.6903 90.5395C83.2803 77.9095 81.2203 45.8495 82.1103 36.7695C93.7603 38.8195 104.14 44.9295 112.35 52.0895Z" fill="white"/>
<path fill-rule="evenodd" clip-rule="evenodd" d="M112.65 51.74C117.3 55.79 122.71 64.23 125.29 72.34C127.34 78.79 127.6 85.07 124.29 88.88C123.87 89.36 123.48 89.86 123.09 90.36C122.11 91.62 121.1 92.9 119.86 93.73C120 94.94 120.07 96.02 120.1 97.04C120.11 97.86 120.1 98.63 120.05 99.43C120.91 98.92 121.73 98.45 122.49 98.04C123.41 97.55 124.25 97.13 124.95 96.81C126.78 87.55 132.12 85.58 138.32 86.74C144.75 87.95 152.04 92.59 157.19 95.87C160.16 97.75 162.39 99.17 163.13 99.15L165.33 99.06L163.35 100.03C162.55 100.43 154.86 103.91 146.59 106C142.04 107.15 137.32 107.88 133.42 107.46C129.41 107.03 126.26 105.4 125.04 101.8C124.81 101.12 124.65 100.36 124.57 99.53C123.53 100.02 121.81 100.88 120.15 102.85C119.62 106.37 118.46 109.44 117.54 111.88C117.13 112.97 116.76 113.94 116.53 114.76L116.44 115.09L116.09 115.1C116.01 115.1 115.88 115.11 115.73 115.12C114.77 115.18 113.02 115.29 110.83 114.58L110.09 114.33L110.66 113.79C112.75 111.8 114.7 108.49 115.74 104.77C116.57 101.78 116.8 98.53 116.01 95.53C112.82 96.57 109.44 96.68 106.16 95.95C102.67 95.16 99.2902 93.44 96.3702 90.9L96.3602 90.89C91.0202 85.86 87.4602 77.81 85.1602 69.35C81.6402 56.34 81.1002 42.27 81.6402 36.73L81.6902 36.23L82.1802 36.31C87.7002 37.28 92.9202 39.15 97.7702 41.61C103.26 44.39 108.27 47.92 112.65 51.74ZM124.4 72.62C121.87 64.67 116.58 56.41 112.04 52.44C107.71 48.67 102.77 45.19 97.3502 42.44C92.7302 40.1 87.7602 38.3 82.5202 37.32C82.0602 43.11 82.6702 56.59 86.0702 69.11C88.3202 77.43 91.8002 85.31 97.0002 90.21C99.7902 92.64 103.03 94.29 106.36 95.03C109.63 95.77 113.01 95.62 116.17 94.48L116.63 94.31L116.77 94.78C117.77 98.11 117.56 101.72 116.64 105.02C115.65 108.57 113.85 111.77 111.86 113.9C113.54 114.32 114.89 114.24 115.67 114.19L115.73 114.18C115.96 113.42 116.3 112.53 116.67 111.55C117.58 109.12 118.74 106.06 119.25 102.58L119.27 102.45L119.35 102.35C121.26 100.04 123.25 99.12 124.35 98.61C124.51 98.53 124.65 98.47 124.78 98.4L125.42 98.07L125.46 98.8C125.5 99.81 125.66 100.71 125.93 101.5C127.01 104.69 129.86 106.14 133.52 106.53C137.29 106.93 141.9 106.22 146.36 105.09C153.03 103.41 159.3 100.82 161.83 99.7C160.6 99.14 158.83 98.01 156.69 96.66C151.6 93.41 144.4 88.83 138.15 87.66C132.41 86.58 127.47 88.46 125.82 97.22L125.78 97.47L125.55 97.57C124.84 97.88 123.94 98.32 122.93 98.87C121.94 99.4 120.85 100.02 119.76 100.69L118.97 101.17L119.05 100.25C119.15 99.14 119.19 98.12 119.17 97.06C119.14 96 119.06 94.86 118.9 93.54L118.87 93.24L119.13 93.08C120.34 92.36 121.36 91.06 122.36 89.79C122.77 89.25 123.19 88.72 123.59 88.26C126.65 84.75 126.36 78.79 124.4 72.62Z" fill="white"/>
<path fill-rule="evenodd" clip-rule="evenodd" d="M118.56 92.8601C118.88 96.1301 118.73 99.3801 118.65 101.8C120.88 100 124.16 98.2101 125.85 97.5301C134.73 110.73 159 99.5901 162.78 99.4501C159.17 100.27 126.54 115.51 125.77 97.7901C124.78 98.3901 121.54 99.2301 118.8 102.47C118.49 106.11 117.22 108.83 115.5 113.9C114.67 113.97 114.93 114.13 112.37 113.77C117.1 108.39 119.08 99.7501 116.8 93.7601C110.26 96.1001 103.15 94.3901 97.4899 89.4501C82.9299 75.2301 83.9999 44.9101 82.1899 36.3101C91.8299 89.6601 119.1 92.4901 118.56 92.8601Z" fill="white"/>
<path d="M154.5 120.63H1.89014V123.49H154.5V120.63Z" fill="white"/>
<path fill-rule="evenodd" clip-rule="evenodd" d="M2.25 120.99V123.12H154.13V120.99H2.25Z" fill="white"/>
<path fill-rule="evenodd" clip-rule="evenodd" d="M2.25 120.99V123.12H154.13V120.99H2.25Z" fill="white" stroke="white" stroke-width="0.71"/>
<path d="M23.9487 142.192C27.5701 142.192 29.3809 140.06 29.3809 135.796C29.3809 132.166 27.5701 130.352 23.9487 130.352H20.3477V142.192H23.9487ZM17.1128 145V127.544H23.9487C29.7267 127.544 32.6157 130.295 32.6157 135.796C32.6157 141.932 29.7267 145 23.9487 145H17.1128ZM37.9438 138.542C37.9438 141.22 38.9814 142.559 41.0566 142.559C43.1318 142.559 44.1694 141.22 44.1694 138.542C44.1694 135.93 43.1318 134.624 41.0566 134.624C38.9814 134.624 37.9438 135.93 37.9438 138.542ZM34.709 138.591C34.709 134.294 36.8249 132.146 41.0566 132.146C45.2884 132.146 47.4043 134.294 47.4043 138.591C47.4043 142.88 45.2884 145.024 41.0566 145.024C36.8411 145.024 34.7253 142.88 34.709 138.591ZM53.3306 142.034C54.0711 142.27 54.9297 142.388 55.9062 142.388C57.8594 142.388 58.8359 141.008 58.8359 138.25C58.8359 135.995 57.9937 134.868 56.3091 134.868C55.2186 134.868 54.2257 135.088 53.3306 135.527V142.034ZM50.0957 127.544H53.3306V133.159C54.299 132.508 55.3773 132.183 56.5654 132.183C60.2113 132.183 62.0342 134.233 62.0342 138.335C62.0342 142.778 59.9468 145 55.772 145C54.0142 145 52.1221 144.825 50.0957 144.475V127.544ZM64.7256 145V132.183H67.228L67.6309 133.818C68.7539 132.728 69.9421 132.183 71.1953 132.183V134.795C69.9909 134.795 68.9126 135.295 67.9604 136.296V145H64.7256ZM71.7505 132.183H75.1807L78.4155 141.411L81.5771 132.183H84.9463L79.624 145.378C78.68 147.706 77.1704 149.362 75.0952 150.347L73.5327 148.137C74.965 147.511 76.0067 146.489 76.6577 145.073L71.7505 132.183ZM87.0396 145V127.544H95.2183C98.5386 127.544 100.199 128.899 100.199 131.609C100.199 133.595 99.1164 135.015 96.9517 135.869C99.2629 136.3 100.418 137.623 100.418 139.836C100.418 143.279 98.5996 145 94.9619 145H87.0396ZM94.8276 142.192C96.2599 142.192 96.9761 141.46 96.9761 139.995C96.9761 138.18 95.9059 137.273 93.7656 137.273H92.7891V135.186C95.4746 134.738 96.8174 133.615 96.8174 131.816C96.8174 130.84 96.2152 130.352 95.0107 130.352H90.2744V142.192H94.8276ZM103.122 145V132.183H105.625L106.027 133.818C107.15 132.728 108.339 132.183 109.592 132.183V134.795C108.387 134.795 107.309 135.295 106.357 136.296V145H103.122ZM123.208 132.183V145H120.682L120.291 143.364C118.818 144.455 117.256 145 115.604 145C112.983 145 111.673 143.45 111.673 140.349V132.183H114.908V140.264C114.908 141.68 115.526 142.388 116.763 142.388C117.813 142.388 118.883 141.969 119.974 141.13V132.183H123.208ZM126.522 145V127.544H129.757V133.184C131.084 132.516 132.479 132.183 133.944 132.183C137.216 132.183 138.852 133.416 138.852 135.881C138.852 137.672 137.712 139.071 135.434 140.081L139.413 145H135.458L132.113 140.422V138.921C134.449 138.424 135.617 137.611 135.617 136.479C135.617 135.324 134.844 134.746 133.297 134.746C132.215 134.746 131.035 135.088 129.757 135.771V145H126.522Z" fill="white"/>
</svg>
