<svg width="24" height="19" viewBox="0 0 24 19" fill="none" xmlns="http://www.w3.org/2000/svg">
<path fill-rule="evenodd" clip-rule="evenodd" d="M12.015 10.0833C10.062 10.0833 0 2.65008 0 2.65008V1.83333C0 0.821333 0.896 0 2.002 0H22.028C23.135 0 24.031 0.821333 24.031 1.83333L24.015 2.75C24.015 2.75 14.062 10.0833 12.015 10.0833ZM12.015 12.6042C14.156 12.6042 24.015 5.5 24.015 5.5L24.031 16.5C24.031 17.512 23.135 18.3333 22.028 18.3333H2.002C0.897 18.3333 0 17.512 0 16.5L0.016 5.5C0.015 5.5 10.062 12.6042 12.015 12.6042Z" fill="#828282"/>
</svg>
