<svg width="60" height="79" viewBox="0 0 60 79" fill="none" xmlns="http://www.w3.org/2000/svg">
<g filter="url(#filter0_d)">
<path d="M42.3916 25.7233C42.3916 32.824 36.5896 38.5847 29.4326 38.5847C22.2745 38.5847 16.4735 32.824 16.4735 25.7233C16.4735 18.6207 22.2755 12.8619 29.4326 12.8619C36.5912 12.8614 42.3916 18.6201 42.3916 25.7233ZM55.8372 25.7233C55.8372 11.5165 44.2337 0 29.9186 0C15.6044 0 4 11.5165 4 25.7233C4 31.9697 6.24559 37.6969 9.97721 42.1518L29.941 70.7388L50.1967 41.7348C50.9242 40.8312 51.5905 39.8789 52.1916 38.8778L52.3964 38.5863H52.3628C54.5687 34.8003 55.8372 30.4109 55.8372 25.7233Z" fill="white"/>
</g>
<defs>
<filter id="filter0_d" x="0" y="0" width="59.8372" height="78.7388" filterUnits="userSpaceOnUse" color-interpolation-filters="sRGB">
<feFlood flood-opacity="0" result="BackgroundImageFix"/>
<feColorMatrix in="SourceAlpha" type="matrix" values="0 0 0 0 0 0 0 0 0 0 0 0 0 0 0 0 0 0 127 0"/>
<feOffset dy="4"/>
<feGaussianBlur stdDeviation="2"/>
<feColorMatrix type="matrix" values="0 0 0 0 0 0 0 0 0 0 0 0 0 0 0 0 0 0 0.25 0"/>
<feBlend mode="normal" in2="BackgroundImageFix" result="effect1_dropShadow"/>
<feBlend mode="normal" in="SourceGraphic" in2="effect1_dropShadow" result="shape"/>
</filter>
</defs>
</svg>
