<svg width="163" height="109" viewBox="0 0 163 109" fill="none" xmlns="http://www.w3.org/2000/svg">
<rect x="46.7638" y="6.75012" width="72.1666" height="2.30542" fill="white" stroke="#979797" stroke-width="1.50025"/>
<path d="M49.7347 10.5562H114.766C112.431 12.9065 109.956 15.403 109.19 19.1708C108.282 23.6364 109.769 29.7101 115.87 39.3547L119.376 49.6006L119.678 50.4846L120.476 49.9983L120.919 49.7279C123.936 58.158 124.789 67.0502 123.888 74.7991C122.964 82.7466 120.21 89.3842 116.178 93.1271C115.929 93.1954 115.681 93.2632 115.436 93.3305C99.1519 97.7964 90.9225 100.053 82.6204 100.086C74.1767 100.12 65.6341 97.8518 48.4464 93.0966C47.9192 92.8399 47.309 92.2922 46.6572 91.4062C45.9929 90.5033 45.3255 89.3041 44.6889 87.8508C43.4162 84.9454 42.2964 81.0934 41.5651 76.7356C40.1449 68.2721 40.2093 58.0174 43.3611 49.2126L43.9133 49.5208L44.6604 49.9377L44.9761 49.1426L48.8631 39.3531C54.2912 29.7768 55.7659 24.0498 55.0412 19.756C54.6765 17.5956 53.7645 15.8561 52.6218 14.2278C52.053 13.4173 51.4224 12.6281 50.7736 11.8312C50.6497 11.679 50.5252 11.5266 50.4002 11.3736C50.1797 11.1037 49.9577 10.832 49.7347 10.5562Z" fill="white" stroke="#979797" stroke-width="1.50025"/>
<path d="M95.4984 48.5224C95.5321 48.8295 95.5506 49.1063 95.5598 49.3437C90.4696 48.0499 86.3781 47.3597 82.3069 47.342C78.2712 47.3243 74.2918 47.9675 69.4119 49.2967C69.4414 49.0859 69.4807 48.8479 69.5328 48.5881C69.7459 47.5265 70.1712 46.1183 71.0157 44.716C72.6757 41.9598 76.0286 39.0988 82.9794 39.0988C86.4767 39.0988 88.9737 39.824 90.761 40.8656C92.5452 41.9054 93.6662 43.286 94.3742 44.6705C95.0857 46.0619 95.382 47.4624 95.4984 48.5224Z" fill="white" stroke="#979797" stroke-width="1.50025"/>
<path d="M120.238 48.4998L117.47 39.9952C119.685 41.3002 121.333 42.3247 122.53 43.4849C123.682 44.6016 124.413 45.8467 124.744 47.641C123.036 47.0481 121.368 47.5072 120.238 48.4998Z" fill="white" stroke="#979797" stroke-width="1.50025"/>
<path d="M44.0648 48.4843L46.8337 39.9797C44.6184 41.2847 42.97 42.3092 41.7732 43.4694C40.621 44.5861 39.8899 45.8312 39.5596 47.6255C41.2674 47.0326 42.9351 47.4917 44.0648 48.4843Z" fill="white" stroke="#979797" stroke-width="1.50025"/>
</svg>
