<svg width="63" height="69" viewBox="0 0 63 69" fill="none" xmlns="http://www.w3.org/2000/svg">
<rect x="6.62956" y="1.40971" width="51.5013" height="1.64525" fill="white" stroke="#979797" stroke-width="1.07064"/>
<path d="M8.75008 4.1259H55.1594C53.4933 5.80321 51.7266 7.5848 51.1801 10.2737C50.5323 13.4605 51.5936 17.795 55.9472 24.6778L58.4491 31.9898L58.6649 32.6206L59.2342 32.2736L59.5507 32.0806C61.7036 38.0967 62.3121 44.4425 61.6691 49.9725C61.0096 55.6442 59.0444 60.3811 56.1668 63.0522L55.6376 63.1973C44.0164 66.3844 38.1435 67.995 32.2188 68.0185C26.193 68.0423 20.0966 66.4239 7.83073 63.0305C7.45451 62.8472 7.01901 62.4564 6.55383 61.8241C6.0798 61.1797 5.60351 60.3239 5.14919 59.2868C4.24094 57.2134 3.44176 54.4644 2.91992 51.3545C1.9064 45.3145 1.95235 37.9964 4.20157 31.7128L4.59569 31.9328L5.1288 32.2303L5.3541 31.6629L8.12805 24.6767C12.0018 17.8426 13.0542 13.7556 12.537 10.6913C12.2768 9.14956 11.6259 7.90816 10.8104 6.74613C10.4045 6.16775 9.95451 5.60452 9.49152 5.03584C9.40308 4.92722 9.31421 4.81845 9.225 4.70926C9.06766 4.51667 8.90922 4.32275 8.75008 4.1259Z" fill="white" stroke="#979797" stroke-width="1.07064"/>
<path d="M41.4529 31.8064C37.8203 30.8831 34.9004 30.3906 31.995 30.3779C29.1149 30.3653 26.2751 30.8243 22.7926 31.7729C22.8136 31.6224 22.8416 31.4525 22.8789 31.2672C23.0309 30.5096 23.3344 29.5046 23.9371 28.5039C25.1218 26.5369 27.5146 24.4952 32.4749 24.4952C34.9708 24.4952 36.7527 25.0127 38.0282 25.756C39.3015 26.4981 40.1015 27.4834 40.6067 28.4714C41.1145 29.4644 41.326 30.4638 41.409 31.2203C41.4331 31.4395 41.4463 31.637 41.4529 31.8064Z" fill="white" stroke="#979797" stroke-width="1.07064"/>
<path d="M59.0647 31.2042L57.0886 25.1349C58.6696 26.0662 59.8459 26.7973 60.7001 27.6253C61.5223 28.4223 62.044 29.3108 62.2798 30.5913C61.061 30.1681 59.8708 30.4958 59.0647 31.2042Z" fill="white" stroke="#979797" stroke-width="1.07064"/>
<path d="M4.7034 31.1931L6.67943 25.1238C5.09846 26.0551 3.92215 26.7862 3.06801 27.6142C2.2458 28.4112 1.72405 29.2997 1.4883 30.5802C2.70704 30.157 3.89723 30.4847 4.7034 31.1931Z" fill="white" stroke="#979797" stroke-width="1.07064"/>
</svg>
