<svg width="52" height="71" viewBox="0 0 52 71" fill="none" xmlns="http://www.w3.org/2000/svg">
<path d="M39 40H12L9.5 25L16 10.5L40 13.5L39 40Z" fill="#820000"/>
<path d="M38.3916 25.7233C38.3916 32.824 32.5896 38.5847 25.4326 38.5847C18.2745 38.5847 12.4735 32.824 12.4735 25.7233C12.4735 18.6207 18.2755 12.8619 25.4326 12.8619C32.5912 12.8614 38.3916 18.6201 38.3916 25.7233ZM51.8372 25.7233C51.8372 11.5165 40.2337 0 25.9186 0C11.6044 0 0 11.5165 0 25.7233C0 31.9697 2.24559 37.6969 5.97721 42.1518L25.941 70.7388L46.1967 41.7348C46.9242 40.8312 47.5905 39.8789 48.1916 38.8778L48.3964 38.5863H48.3628C50.5687 34.8003 51.8372 30.4109 51.8372 25.7233Z" fill="#D80000"/>
</svg>
