<svg width="24" height="23" viewBox="0 0 24 23" fill="none" xmlns="http://www.w3.org/2000/svg">
<path d="M22.7037 16.6721L19.262 14.4796C18.8119 14.1935 18.2859 14.0426 17.7404 14.0426C16.8729 14.0426 16.0587 14.4304 15.5627 15.0794L14.7638 16.1234C13.4247 15.3046 11.9306 14.1613 10.5062 12.8628C9.08213 11.5644 7.82845 10.2021 6.93067 8.98122L8.07514 8.25276C8.65853 7.88239 9.04815 7.32753 9.17188 6.69084C9.29536 6.05463 9.13972 5.41179 8.73298 4.87964L6.32887 1.74161C5.82615 1.086 5.01501 0.694336 4.15873 0.694336C3.86198 0.694336 3.57093 0.742111 3.29389 0.835297C2.97924 0.941254 2.68612 1.07133 2.3987 1.23595L1.92348 1.54105C1.80468 1.62524 1.69418 1.71748 1.58834 1.81398C1.00858 2.34235 0.597176 3.0112 0.365013 3.80209C-0.625633 7.18799 1.82854 12.308 6.47179 16.5415C10.3711 20.0968 15.0556 22.3053 18.6968 22.3058H18.697C19.3206 22.3058 19.9084 22.2396 20.4443 22.109C21.3118 21.8976 22.0454 21.5225 22.6254 20.9936C22.7307 20.8976 22.8313 20.7968 22.9392 20.6696L23.2741 20.2339C23.4378 19.9955 23.5802 19.7283 23.698 19.4393C24.1029 18.4412 23.6941 17.3031 22.7037 16.6721Z" fill="#828282"/>
</svg>
