<svg width="163" height="109" viewBox="0 0 163 109" fill="none" xmlns="http://www.w3.org/2000/svg">
<rect x="3.94397" y="63.938" width="101.736" height="20.2533" fill="white" stroke="#979797" stroke-width="1.50025"/>
<path d="M147.362 82.7522L147.353 82.7412L147.344 82.7306L145.232 80.3843L145.125 80.2655L144.979 80.2006L140.756 78.3236L140.61 78.2589H140.451H131.066H130.928L130.799 78.3081L125.872 80.1851L125.629 80.2775L125.495 80.5002L125.481 80.5242V48.1436L143.123 49.4835L157.298 53.9835V83.89H148.31L147.362 82.7522Z" fill="white" stroke="#979797" stroke-width="1.50025"/>
<path d="M71.4605 89.1243L71.669 89.2974H71.9399H99.274H121.446H121.89L122.104 88.909L126.427 81.0527L131.2 79.2899H140.524L144.449 81.0614L147.626 84.748L147.85 85.0085H148.194H157.298V98.043H148.827V93.7894V93.548L148.686 93.3519L144.58 87.6333L144.461 87.4679L144.275 87.3853L140.521 85.7173L140.376 85.6527H140.217H134.585H134.462L134.345 85.6923L129.418 87.3603L129.136 87.4555L128.996 87.7178L126.158 93.0392H112.296H69.7904L66.9572 88.1701L66.8616 88.0057L66.6992 87.9068L63.1798 85.7623L63 85.6527H62.7895H28.7685H28.6249L28.4915 85.7058L23.095 87.8502L22.8847 87.9338L22.7557 88.1197L19.3427 93.0392H11.4523V85.0085H19.7353H23.372H28.7685H46.8348H64.7301L68.9507 87.0388L71.4605 89.1243Z" fill="white" stroke="#979797" stroke-width="1.50025"/>
<path d="M111.403 38.4646H119.758V83.8899H111.403V38.4646Z" fill="white" stroke="#979797" stroke-width="1.50025"/>
<path d="M111.131 37.4209L76.7572 10.4293L77.8259 5.26384L118.459 37.0634L111.131 37.4209Z" fill="white" stroke="#979797" stroke-width="1.50025"/>
<path d="M75.7071 10.2472L42.414 27.6974L38.0159 24.8826L76.3964 5.2514L75.7071 10.2472Z" fill="white" stroke="#979797" stroke-width="1.50025"/>
<path d="M41.8609 28.6255V35.0873H37.2609V26.0819L41.8609 28.6255Z" fill="white" stroke="#979797" stroke-width="1.50025"/>
<rect x="38.0075" y="36.6868" width="6.25233" height="1.40777" transform="rotate(125 38.0075 36.6868)" fill="white" stroke="#979797" stroke-width="1.40777"/>
<rect x="32.9499" y="41.5217" width="6.25233" height="1.40777" transform="rotate(50 32.9499 41.5217)" fill="white" stroke="#979797" stroke-width="1.40777"/>
<rect x="44.8315" y="41.8084" width="6.25233" height="1.40777" transform="rotate(-125 44.8315 41.8084)" fill="white" stroke="#979797" stroke-width="1.40777"/>
<rect x="42.1953" y="46.3113" width="6.25233" height="1.40777" transform="rotate(-50 42.1953 46.3113)" fill="white" stroke="#979797" stroke-width="1.40777"/>
<circle cx="32.2875" cy="96.8407" r="9.10423" fill="white" stroke="#979797" stroke-width="1.50025"/>
<circle cx="32.2875" cy="96.8407" r="9.10423" fill="white" stroke="#979797" stroke-width="1.50025"/>
<circle cx="56.6888" cy="96.8407" r="9.10423" fill="white" stroke="#979797" stroke-width="1.50025"/>
<circle cx="137.401" cy="96.8407" r="9.10423" fill="white" stroke="#979797" stroke-width="1.50025"/>
<rect x="140.466" y="59.4374" width="15.0025" height="10.5017" fill="white" stroke="#979797" stroke-width="1.50025"/>
<line x1="105.961" y1="66.9385" x2="105.961" y2="60.9375" stroke="#979797" stroke-width="1.50025"/>
<line x1="3.19372" y1="68.4387" x2="3.19372" y2="61.6876" stroke="#979797" stroke-width="1.50025"/>
<path d="M69.4735 86.5458L69.3746 86.4611L69.2529 86.4146L65.3331 84.9177L123.459 84.5737L121.263 88.6913L71.8887 88.616L69.4735 86.5458Z" fill="white" stroke="#979797" stroke-width="1.50025"/>
</svg>
