<svg width="111" height="73" viewBox="0 0 111 73" fill="none" xmlns="http://www.w3.org/2000/svg">
<rect x="1.51936" y="42.564" width="72.1597" height="14.3654" fill="white" stroke="#979797" stroke-width="1.0641"/>
<path d="M103.243 55.9087L103.237 55.9009L103.23 55.8933L101.732 54.2292L101.657 54.1449L101.553 54.0989L98.5575 52.7676L98.4543 52.7217H98.3414H91.6847H91.5868L91.4953 52.7566L88.0005 54.0879L87.8284 54.1535L87.7337 54.3114L87.7235 54.3284V31.3613L100.236 32.3117L110.291 35.5035V56.7157H103.916L103.243 55.9087Z" fill="white" stroke="#979797" stroke-width="1.0641"/>
<path d="M103.834 57.5091H110.291V66.7542H104.283V63.7372V63.566L104.183 63.4269L101.27 59.3708L101.186 59.2535L101.054 59.1949L98.3916 58.0118L98.2885 57.966H98.1756H94.1816H94.094L94.011 57.9941L90.5162 59.1771L90.3165 59.2447L90.2173 59.4307L88.2041 63.2051H78.3719H48.2234L46.2139 59.7515L46.146 59.6349L46.0308 59.5647L43.5346 58.0437L43.4071 57.966H43.2577H19.1272H19.0253L18.9307 58.0036L15.1031 59.5246L14.9539 59.5839L14.8624 59.7158L12.4416 63.2051H6.84504V57.5091H12.7201H15.2995H19.1272H31.9413H44.6342L47.6278 58.9491L49.408 60.4283L49.5558 60.5511H49.748H69.1357H84.8622H85.1767L85.3283 60.2756L88.3946 54.7033L91.7804 53.4529H98.3939L101.178 54.7094L103.431 57.3243L103.59 57.5091H103.834Z" fill="white" stroke="#979797" stroke-width="1.0641"/>
<path d="M77.7391 24.4962H83.6645V56.7156H77.7391V24.4962Z" fill="white" stroke="#979797" stroke-width="1.0641"/>
<path d="M77.5456 23.7559L53.1648 4.61121L53.9228 0.947441L82.743 23.5024L77.5456 23.7559Z" fill="white" stroke="#979797" stroke-width="1.0641"/>
<path d="M52.42 4.48208L28.8057 16.8593L25.6862 14.8628L52.9089 0.938637L52.42 4.48208Z" fill="white" stroke="#979797" stroke-width="1.0641"/>
<path d="M28.4135 17.5175V22.1008H25.1507V15.7133L28.4135 17.5175Z" fill="white" stroke="#979797" stroke-width="1.0641"/>
<rect x="25.6802" y="23.2352" width="4.43468" height="0.998507" transform="rotate(125 25.6802 23.2352)" fill="white" stroke="#979797" stroke-width="0.998507"/>
<rect x="22.0928" y="26.6645" width="4.43468" height="0.998507" transform="rotate(50 22.0928 26.6645)" fill="white" stroke="#979797" stroke-width="0.998507"/>
<rect x="30.5206" y="26.8679" width="4.43468" height="0.998507" transform="rotate(-125 30.5206 26.8679)" fill="white" stroke="#979797" stroke-width="0.998507"/>
<rect x="28.6501" y="30.0618" width="4.43468" height="0.998507" transform="rotate(-50 28.6501 30.0618)" fill="white" stroke="#979797" stroke-width="0.998507"/>
<circle cx="21.6228" cy="65.9015" r="6.4575" fill="white" stroke="#979797" stroke-width="1.0641"/>
<circle cx="21.6228" cy="65.9015" r="6.4575" fill="white" stroke="#979797" stroke-width="1.0641"/>
<circle cx="38.9305" cy="65.9015" r="6.4575" fill="white" stroke="#979797" stroke-width="1.0641"/>
<circle cx="96.1785" cy="65.9015" r="6.4575" fill="white" stroke="#979797" stroke-width="1.0641"/>
<rect x="98.3529" y="39.3718" width="10.641" height="7.44872" fill="white" stroke="#979797" stroke-width="1.0641"/>
<line x1="73.8781" y1="44.6924" x2="73.8781" y2="40.436" stroke="#979797" stroke-width="1.0641"/>
<line x1="0.98748" y1="45.7565" x2="0.98748" y2="40.968" stroke="#979797" stroke-width="1.0641"/>
<path d="M47.9981 58.5997L47.928 58.5396L47.8417 58.5066L45.0613 57.4449L86.2895 57.2009L84.7319 60.1214L49.7112 60.068L47.9981 58.5997Z" fill="white" stroke="#979797" stroke-width="1.0641"/>
</svg>
